#!OML:ASF H:\Pregnant\Project 1\Capture day 1\Session 1\femalepreg.ASF
:FULLY-SPECIFIED
:DEGREES
1100
root 9.62172 15.7174 5.9353 18.6081 -14.1811 -4.7009
lowerback -24.7901 -1.96728 -0.736124
upperback -5.25239 -2.6512 2.26643
thorax 8.11378 -1.3304 2.08893
lowerneck -18.4645 5.36739 4.92094
upperneck 28.0253 6.31812 -0.735019
head 12.5632 3.21465 -0.0915673
rclavicle 1.43746e-014 1.49089e-014
rhumerus -41.0476 19.6015 -82.9858
rradius 97.7172
rwrist 3.97349
rhand -36.8379 7.0744
rfingers 7.12502
rthumb -9.91828 -22.672
lclavicle 1.43746e-014 1.49089e-014
lhumerus 1.80541 -37.3639 75.0928
lradius 133.595
lwrist 40.7624
lhand -35.8281 -16.4641
lfingers 7.12502
lthumb -8.9439 13.3263
rfemur -36.4653 14.9857 22.816
rtibia 36.8629
rfoot -14.7931 -1.09575
rtoes -5.26078
lfemur -13.7904 -11.6364 -17.4631
ltibia 19.1955
lfoot -14.9364 14.9064
ltoes -29.0804
1101
root 9.62626 15.7185 5.93475 18.6684 -14.2114 -4.69351
lowerback -24.7579 -1.9261 -0.76104
upperback -5.27687 -2.58899 2.24502
thorax 8.06714 -1.3008 2.10007
lowerneck -18.566 5.34747 4.9862
upperneck 27.9409 6.28312 -0.804972
head 12.5543 3.19622 -0.132878
rclavicle 2.22266e-014 7.35503e-015
rhumerus -41.0284 19.454 -82.9505
rradius 96.0711
rwrist 3.95972
rhand -36.9729 6.98484
rfingers 7.12502
rthumb -10.0485 -22.7553
lclavicle 2.22266e-014 7.35503e-015
lhumerus 0.998992 -37.2905 75.2571
lradius 133.396
lwrist 40.5424
lhand -35.3905 -16.7487
lfingers 7.12502
lthumb -8.52159 13.0593
rfemur -36.5614 15.0045 22.7693
rtibia 36.8753
rfoot -14.7456 -1.0991
rtoes -5.3321
lfemur -13.8125 -11.6642 -17.4753
ltibia 19.1071
lfoot -14.8767 14.937
ltoes -29.0985
1102
root 9.63084 15.7197 5.93403 18.7258 -14.2386 -4.67879
lowerback -24.7207 -1.89023 -0.790486
upperback -5.30147 -2.53248 2.22292
thorax 8.01824 -1.27397 2.1113
lowerneck -18.6448 5.32445 5.04148
upperneck 27.8461 6.24785 -0.875204
head 12.5362 3.17675 -0.173474
rclavicle 3.26628e-014 2.38542e-015
rhumerus -41.0073 19.3161 -82.9202
rradius 94.4191
rwrist 3.89329
rhand -37.0995 6.92012
rfingers 7.12502
rthumb -10.1707 -22.814
lclavicle 3.26628e-014 2.38542e-015
lhumerus 0.139677 -37.2029 75.435
lradius 133.186
lwrist 40.3661
lhand -34.978 -17.0227
lfingers 7.12502
lthumb -8.12349 12.8011
rfemur -36.659 15.0228 22.7137
rtibia 36.8923
rfoot -14.701 -1.10619
rtoes -5.39625
lfemur -13.8312 -11.6907 -17.494
ltibia 19.0099
lfoot -14.8152 14.9571
ltoes -29.1011
1103
root 9.63543 15.721 5.93332 18.7819 -14.2618 -4.66114
lowerback -24.6755 -1.85874 -0.820992
upperback -5.32943 -2.48171 2.20376
thorax 7.96193 -1.24988 2.1247
lowerneck -18.7138 5.30113 5.08967
upperneck 27.7554 6.21608 -0.94904
head 12.5175 3.15761 -0.213883
rclavicle 1.30701e-014 1.86858e-014
rhumerus -40.9921 19.1908 -82.8935
rradius 92.7635
rwrist 3.76106
rhand -37.2472 6.88863
rfingers 7.12502
rthumb -10.3131 -22.8385
lclavicle 1.30701e-014 1.86858e-014
lhumerus -0.780574 -37.09 75.6405
lradius 132.962
lwrist 40.2176
lhand -34.6049 -17.1833
lfingers 7.12502
lthumb -7.76344 12.6542
rfemur -36.7554 15.0372 22.6554
rtibia 36.9106
rfoot -14.6598 -1.11446
rtoes -5.4621
lfemur -13.85 -11.7154 -17.5149
ltibia 18.9107
lfoot -14.7533 14.9697
ltoes -29.098
1104
root 9.64015 15.7223 5.93252 18.8388 -14.2786 -4.64478
lowerback -24.6247 -1.82635 -0.844106
upperback -5.35743 -2.43166 2.18466
thorax 7.90248 -1.22594 2.13373
lowerneck -18.793 5.27535 5.14014
upperneck 27.6781 6.18377 -1.03617
head 12.5068 3.13649 -0.259355
rclavicle -1.68594e-014 8.34896e-015
rhumerus -40.979 19.0646 -82.8679
rradius 91.1094
rwrist 3.55599
rhand -37.4017 6.87148
rfingers 7.12502
rthumb -10.4621 -22.8482
lclavicle -1.68594e-014 8.34896e-015
lhumerus -1.73493 -36.957 75.8589
lradius 132.719
lwrist 40.0843
lhand -34.177 -17.3078
lfingers 7.12502
lthumb -7.35037 12.5445
rfemur -36.8508 15.0437 22.5997
rtibia 36.9274
rfoot -14.6212 -1.119
rtoes -5.51796
lfemur -13.8748 -11.7347 -17.533
ltibia 18.8159
lfoot -14.6941 14.9718
ltoes -29.0936
1105
root 9.64489 15.7237 5.93165 18.8966 -14.2892 -4.6333
lowerback -24.5665 -1.7933 -0.860937
upperback -5.38883 -2.38297 2.17221
thorax 7.83562 -1.20252 2.14613
lowerneck -18.8732 5.24638 5.18125
upperneck 27.6124 6.1536 -1.1347
head 12.5011 3.11372 -0.30709
rclavicle 2.18663e-014 1.74931e-014
rhumerus -40.9759 18.9407 -82.8351
rradius 89.4581
rwrist 3.28072
rhand -37.577 6.87774
rfingers 7.12502
rthumb -10.6313 -22.8333
lclavicle 2.18663e-014 1.74931e-014
lhumerus -2.72816 -36.8004 76.1036
lradius 132.454
lwrist 39.9322
lhand -33.609 -17.4301
lfingers 7.12502
lthumb -6.80209 12.4406
rfemur -36.9426 15.0492 22.549
rtibia 36.9397
rfoot -14.5836 -1.12578
rtoes -5.56654
lfemur -13.9079 -11.7498 -17.5447
ltibia 18.7323
lfoot -14.6406 14.968
ltoes -29.0945
1106
root 9.64975 15.725 5.93074 18.9533 -14.29 -4.6256
lowerback -24.5011 -1.76018 -0.872549
upperback -5.41959 -2.33614 2.16625
thorax 7.76594 -1.17989 2.16214
lowerneck -18.9681 5.21774 5.21914
upperneck 27.5601 6.12934 -1.24903
head 12.5043 3.09089 -0.358786
rclavicle 3.10601e-014 -1.76918e-014
rhumerus -40.9757 18.8106 -82.7899
rradius 87.8092
rwrist 2.95233
rhand -37.7518 6.90356
rfingers 7.12502
rthumb -10.7999 -22.7988
lclavicle 3.10601e-014 -1.76918e-014
lhumerus -3.7446 -36.6133 76.3682
lradius 132.153
lwrist 39.7449
lhand -32.9075 -17.5929
lfingers 7.12502
lthumb -6.1249 12.2986
rfemur -37.0277 15.0537 22.5029
rtibia 36.946
rfoot -14.5456 -1.13832
rtoes -5.60755
lfemur -13.9506 -11.7617 -17.5509
ltibia 18.6648
lfoot -14.5941 14.9573
ltoes -29.1111
1107
root 9.65469 15.7262 5.92975 19.0102 -14.2825 -4.62537
lowerback -24.4301 -1.72537 -0.878172
upperback -5.44953 -2.28928 2.16781
thorax 7.69442 -1.15715 2.18297
lowerneck -19.0744 5.18661 5.2472
upperneck 27.5182 6.10632 -1.36988
head 12.5138 3.06653 -0.410777
rclavicle -1.81391e-014 2.06736e-014
rhumerus -40.9788 18.6681 -82.7276
rradius 86.1623
rwrist 2.59519
rhand -37.9311 6.93586
rfingers 7.12502
rthumb -10.9729 -22.7574
lclavicle -1.81391e-014 2.06736e-014
lhumerus -4.79598 -36.3983 76.6637
lradius 131.817
lwrist 39.5081
lhand -32.1082 -17.7799
lfingers 7.12502
lthumb -5.3532 12.1325
rfemur -37.1063 15.0631 22.4634
rtibia 36.9449
rfoot -14.5061 -1.15807
rtoes -5.6327
lfemur -14.0043 -11.7691 -17.5483
ltibia 18.6172
lfoot -14.5564 14.9427
ltoes -29.1408
1108
root 9.6597 15.7273 5.92868 19.0669 -14.2683 -4.6321
lowerback -24.3598 -1.69016 -0.877846
upperback -5.47397 -2.24393 2.17487
thorax 7.62944 -1.13507 2.2058
lowerneck -19.1813 5.15683 5.27566
upperneck 27.4712 6.08904 -1.50389
head 12.522 3.04295 -0.466952
rclavicle 5.89272e-014 3.4191e-014
rhumerus -40.9764 18.5069 -82.6506
rradius 84.5114
rwrist 2.23768
rhand -38.0999 6.96684
rfingers 7.12502
rthumb -11.1356 -22.7177
lclavicle 5.89272e-014 3.4191e-014
lhumerus -5.87336 -36.1557 76.9776
lradius 131.447
lwrist 39.2239
lhand -31.3467 -17.9279
lfingers 7.12502
lthumb -4.61796 12.0018
rfemur -37.1775 15.0741 22.4319
rtibia 36.936
rfoot -14.4651 -1.18369
rtoes -5.65757
lfemur -14.0685 -11.7771 -17.5374
ltibia 18.5907
lfoot -14.5276 14.9295
ltoes -29.1821
